<svg width="296" height="101" viewBox="0 0 296 101" fill="none" xmlns="http://www.w3.org/2000/svg">
<g filter="url(#filter0_d)">
<g clip-path="url(#clip0)">
<path d="M191.35 28.6602H30.6602V68.3302H191.35V28.6602Z" fill="#000632"/>
<path d="M192.01 69H30.0098V28H192.01V69ZM31.3298 67.67H190.69V29.33H31.3298V67.67Z" fill="#BDBDBD"/>
<path d="M264.52 28.6602H103.83V68.3302H264.52V28.6602Z" fill="#000632"/>
<path d="M265.18 69H103.18V28H265.18V69ZM104.49 67.67H263.85V29.33H104.49V67.67Z" fill="#BDBDBD"/>
<path d="M228.19 28.6602H67.5V68.3302H228.19V28.6602Z" fill="#000632"/>
<path d="M228.85 69H66.8496V28H228.85V69ZM68.1596 67.67H227.52V29.33H68.1596V67.67Z" fill="#BDBDBD"/>
<path d="M241.601 56.8702L247.341 53.4702L253.091 56.8602L251.621 50.3602L256.631 45.9402L249.991 45.3202L247.341 39.2002L244.691 45.3202L238.051 45.9502L243.061 50.3602L241.601 56.8702Z" fill="#BDBDBD"/>
<path d="M43.1108 56.8702L48.8408 53.4702L54.5908 56.8602L53.1208 50.3602L58.1308 45.9402L51.4808 45.3202L48.8408 39.2002L46.1908 45.3202L39.5508 45.9502L44.5608 50.3602L43.1108 56.8702Z" fill="#BDBDBD"/>
<path d="M90.0549 55L87.0669 49.87H85.0869V55H83.4489V42.454H87.4989C88.4469 42.454 89.2449 42.616 89.8929 42.94C90.5529 43.264 91.0449 43.702 91.3689 44.254C91.6929 44.806 91.8549 45.436 91.8549 46.144C91.8549 47.008 91.6029 47.77 91.0989 48.43C90.6069 49.09 89.8629 49.528 88.8669 49.744L92.0169 55H90.0549ZM85.0869 48.556H87.4989C88.3869 48.556 89.0529 48.34 89.4969 47.908C89.9409 47.464 90.1629 46.876 90.1629 46.144C90.1629 45.4 89.9409 44.824 89.4969 44.416C89.0649 44.008 88.3989 43.804 87.4989 43.804H85.0869V48.556ZM99.6021 42.454V50.392C99.6021 51.508 99.8721 52.336 100.412 52.876C100.964 53.416 101.726 53.686 102.698 53.686C103.658 53.686 104.408 53.416 104.948 52.876C105.5 52.336 105.776 51.508 105.776 50.392V42.454H107.414V50.374C107.414 51.418 107.204 52.3 106.784 53.02C106.364 53.728 105.794 54.256 105.074 54.604C104.366 54.952 103.568 55.126 102.68 55.126C101.792 55.126 100.988 54.952 100.268 54.604C99.5601 54.256 98.9961 53.728 98.5761 53.02C98.1681 52.3 97.9641 51.418 97.9641 50.374V42.454H99.6021ZM123.611 55H121.973L115.385 45.01V55H113.747V42.436H115.385L121.973 52.408V42.436H123.611V55ZM139.867 55H138.229L131.641 45.01V55H130.003V42.436H131.641L138.229 52.408V42.436H139.867V55ZM147.897 43.786V47.98H152.469V49.33H147.897V53.65H153.009V55H146.259V42.436H153.009V43.786H147.897ZM165.694 55L162.706 49.87H160.726V55H159.088V42.454H163.138C164.086 42.454 164.884 42.616 165.532 42.94C166.192 43.264 166.684 43.702 167.008 44.254C167.332 44.806 167.494 45.436 167.494 46.144C167.494 47.008 167.242 47.77 166.738 48.43C166.246 49.09 165.502 49.528 164.506 49.744L167.656 55H165.694ZM160.726 48.556H163.138C164.026 48.556 164.692 48.34 165.136 47.908C165.58 47.464 165.802 46.876 165.802 46.144C165.802 45.4 165.58 44.824 165.136 44.416C164.704 44.008 164.038 43.804 163.138 43.804H160.726V48.556ZM180.479 47.71V49.096H173.297V47.71H180.479ZM188.755 42.454V50.392C188.755 51.508 189.025 52.336 189.565 52.876C190.117 53.416 190.879 53.686 191.851 53.686C192.811 53.686 193.561 53.416 194.101 52.876C194.653 52.336 194.929 51.508 194.929 50.392V42.454H196.567V50.374C196.567 51.418 196.357 52.3 195.937 53.02C195.517 53.728 194.947 54.256 194.227 54.604C193.519 54.952 192.721 55.126 191.833 55.126C190.945 55.126 190.141 54.952 189.421 54.604C188.713 54.256 188.149 53.728 187.729 53.02C187.321 52.3 187.117 51.418 187.117 50.374V42.454H188.755ZM211.287 46.126C211.287 47.17 210.927 48.04 210.207 48.736C209.499 49.42 208.413 49.762 206.949 49.762H204.537V55H202.899V42.454H206.949C208.365 42.454 209.439 42.796 210.171 43.48C210.915 44.164 211.287 45.046 211.287 46.126ZM206.949 48.412C207.861 48.412 208.533 48.214 208.965 47.818C209.397 47.422 209.613 46.858 209.613 46.126C209.613 44.578 208.725 43.804 206.949 43.804H204.537V48.412H206.949Z" fill="#BDBDBD"/>
</g>
</g>
<defs>
<filter id="filter0_d" x="0" y="0" width="295.18" height="101" filterUnits="userSpaceOnUse" color-interpolation-filters="sRGB">
<feFlood flood-opacity="0" result="BackgroundImageFix"/>
<feColorMatrix in="SourceAlpha" type="matrix" values="0 0 0 0 0 0 0 0 0 0 0 0 0 0 0 0 0 0 127 0"/>
<feOffset dy="2"/>
<feGaussianBlur stdDeviation="15"/>
<feColorMatrix type="matrix" values="0 0 0 0 0.741176 0 0 0 0 0.741176 0 0 0 0 0.741176 0 0 0 0.7 0"/>
<feBlend mode="normal" in2="BackgroundImageFix" result="effect1_dropShadow"/>
<feBlend mode="normal" in="SourceGraphic" in2="effect1_dropShadow" result="shape"/>
</filter>
<clipPath id="clip0">
<rect x="30" y="28" width="235.18" height="41" rx="2" fill="white"/>
</clipPath>
</defs>
</svg>
