<svg width="296" height="101" viewBox="0 0 296 101" fill="none" xmlns="http://www.w3.org/2000/svg">
<g filter="url(#filter0_d)">
<g clip-path="url(#clip0)">
<path d="M191.35 28.6602H30.6602V68.3302H191.35V28.6602Z" fill="#000632"/>
<path d="M192.01 69H30.0098V28H192.01V69ZM31.3298 67.67H190.69V29.33H31.3298V67.67Z" fill="#9E4936"/>
<path d="M264.52 28.6602H103.83V68.3302H264.52V28.6602Z" fill="#000632"/>
<path d="M265.18 69H103.18V28H265.18V69ZM104.49 67.67H263.85V29.33H104.49V67.67Z" fill="#9E4936"/>
<path d="M228.19 28.6602H67.5V68.3302H228.19V28.6602Z" fill="#000632"/>
<path d="M228.85 69H66.8496V28H228.85V69ZM68.1596 67.67H227.52V29.33H68.1596V67.67Z" fill="#9E4936"/>
<path d="M241.601 56.8702L247.341 53.4702L253.091 56.8602L251.621 50.3602L256.631 45.9402L249.991 45.3202L247.341 39.2002L244.691 45.3202L238.051 45.9502L243.061 50.3602L241.601 56.8702Z" fill="#9E4936"/>
<path d="M43.1108 56.8702L48.8408 53.4702L54.5908 56.8602L53.1208 50.3602L58.1308 45.9402L51.4808 45.3202L48.8408 39.2002L46.1908 45.3202L39.5508 45.9502L44.5608 50.3602L43.1108 56.8702Z" fill="#9E4936"/>
<path d="M84.3268 42.454V43.786H80.9068V55H79.2688V43.786H75.8308V42.454H84.3268ZM99.609 42.454V55H97.971V49.312H91.581V55H89.943V42.454H91.581V47.962H97.971V42.454H99.609ZM107.644 42.454V55H106.006V42.454H107.644ZM120.642 55L117.654 49.87H115.674V55H114.036V42.454H118.086C119.034 42.454 119.832 42.616 120.48 42.94C121.14 43.264 121.632 43.702 121.956 44.254C122.28 44.806 122.442 45.436 122.442 46.144C122.442 47.008 122.19 47.77 121.686 48.43C121.194 49.09 120.45 49.528 119.454 49.744L122.604 55H120.642ZM115.674 48.556H118.086C118.974 48.556 119.64 48.34 120.084 47.908C120.528 47.464 120.75 46.876 120.75 46.144C120.75 45.4 120.528 44.824 120.084 44.416C119.652 44.008 118.986 43.804 118.086 43.804H115.674V48.556ZM132.493 42.454C133.861 42.454 135.043 42.712 136.039 43.228C137.047 43.732 137.815 44.458 138.343 45.406C138.883 46.354 139.153 47.47 139.153 48.754C139.153 50.038 138.883 51.154 138.343 52.102C137.815 53.038 137.047 53.758 136.039 54.262C135.043 54.754 133.861 55 132.493 55H128.587V42.454H132.493ZM132.493 53.65C134.113 53.65 135.349 53.224 136.201 52.372C137.053 51.508 137.479 50.302 137.479 48.754C137.479 47.194 137.047 45.976 136.183 45.1C135.331 44.224 134.101 43.786 132.493 43.786H130.225V53.65H132.493ZM161.7 46.126C161.7 47.17 161.34 48.04 160.62 48.736C159.912 49.42 158.826 49.762 157.362 49.762H154.95V55H153.312V42.454H157.362C158.778 42.454 159.852 42.796 160.584 43.48C161.328 44.164 161.7 45.046 161.7 46.126ZM157.362 48.412C158.274 48.412 158.946 48.214 159.378 47.818C159.81 47.422 160.026 46.858 160.026 46.126C160.026 44.578 159.138 43.804 157.362 43.804H154.95V48.412H157.362ZM168.974 53.668H173.366V55H167.336V42.454H168.974V53.668ZM186.122 52.21H180.65L179.642 55H177.914L182.45 42.526H184.34L188.858 55H187.13L186.122 52.21ZM185.654 50.878L183.386 44.542L181.118 50.878H185.654ZM193.822 48.718C193.822 47.494 194.098 46.396 194.65 45.424C195.202 44.44 195.952 43.672 196.9 43.12C197.86 42.568 198.922 42.292 200.086 42.292C201.454 42.292 202.648 42.622 203.668 43.282C204.688 43.942 205.432 44.878 205.9 46.09H203.938C203.59 45.334 203.086 44.752 202.426 44.344C201.778 43.936 200.998 43.732 200.086 43.732C199.21 43.732 198.424 43.936 197.728 44.344C197.032 44.752 196.486 45.334 196.09 46.09C195.694 46.834 195.496 47.71 195.496 48.718C195.496 49.714 195.694 50.59 196.09 51.346C196.486 52.09 197.032 52.666 197.728 53.074C198.424 53.482 199.21 53.686 200.086 53.686C200.998 53.686 201.778 53.488 202.426 53.092C203.086 52.684 203.59 52.102 203.938 51.346H205.9C205.432 52.546 204.688 53.476 203.668 54.136C202.648 54.784 201.454 55.108 200.086 55.108C198.922 55.108 197.86 54.838 196.9 54.298C195.952 53.746 195.202 52.984 194.65 52.012C194.098 51.04 193.822 49.942 193.822 48.718ZM213.577 43.786V47.98H218.149V49.33H213.577V53.65H218.689V55H211.939V42.436H218.689V43.786H213.577Z" fill="#9E4936"/>
</g>
</g>
<defs>
<filter id="filter0_d" x="0" y="0" width="295.18" height="101" filterUnits="userSpaceOnUse" color-interpolation-filters="sRGB">
<feFlood flood-opacity="0" result="BackgroundImageFix"/>
<feColorMatrix in="SourceAlpha" type="matrix" values="0 0 0 0 0 0 0 0 0 0 0 0 0 0 0 0 0 0 127 0"/>
<feOffset dy="2"/>
<feGaussianBlur stdDeviation="15"/>
<feColorMatrix type="matrix" values="0 0 0 0 0.619608 0 0 0 0 0.286275 0 0 0 0 0.211765 0 0 0 0.7 0"/>
<feBlend mode="normal" in2="BackgroundImageFix" result="effect1_dropShadow"/>
<feBlend mode="normal" in="SourceGraphic" in2="effect1_dropShadow" result="shape"/>
</filter>
<clipPath id="clip0">
<rect x="30" y="28" width="235.18" height="41" rx="2" fill="white"/>
</clipPath>
</defs>
</svg>
