<svg width="144" height="144" viewBox="0 0 144 144" fill="none" xmlns="http://www.w3.org/2000/svg">
<g id="24 / symbols / facebook" filter="url(#filter0_d)">
<path id="icon" fill-rule="evenodd" clip-rule="evenodd" d="M38.6654 28.333H105.332C109.934 28.333 113.665 32.064 113.665 36.6663V103.333C113.665 107.935 109.934 111.666 105.332 111.666H38.6654C34.063 111.666 30.332 107.935 30.332 103.333V36.6663C30.332 32.064 34.063 28.333 38.6654 28.333ZM38.6647 36.6662V103.333H105.331V36.6662H38.6647ZM68.3863 70.0181H76.1652V94.9998H84.4986V70.0181H92.7587V61.6848H84.4986V57.4998C84.4986 55.1986 86.3641 53.3332 88.6652 53.3332H92.8319V44.9998H88.6652C81.7617 44.9998 76.1652 50.5963 76.1652 57.4998V61.6848H68.3863V70.0181Z" fill="#DDDDDD"/>
</g>
<defs>
<filter id="filter0_d" x="-8" y="-8" width="160" height="160" filterUnits="userSpaceOnUse" color-interpolation-filters="sRGB">
<feFlood flood-opacity="0" result="BackgroundImageFix"/>
<feColorMatrix in="SourceAlpha" type="matrix" values="0 0 0 0 0 0 0 0 0 0 0 0 0 0 0 0 0 0 127 0"/>
<feOffset dy="2"/>
<feGaussianBlur stdDeviation="15"/>
<feColorMatrix type="matrix" values="0 0 0 0 1 0 0 0 0 1 0 0 0 0 1 0 0 0 0.7 0"/>
<feBlend mode="normal" in2="BackgroundImageFix" result="effect1_dropShadow"/>
<feBlend mode="normal" in="SourceGraphic" in2="effect1_dropShadow" result="shape"/>
</filter>
</defs>
</svg>
