<svg width="144" height="144" viewBox="0 0 144 144" fill="none" xmlns="http://www.w3.org/2000/svg">
<g id="24 / symbols / instagram" filter="url(#filter0_d)">
<path id="icon" fill-rule="evenodd" clip-rule="evenodd" d="M88.6654 28.333H55.332C41.5249 28.333 30.332 39.5259 30.332 53.333V86.6663C30.332 100.473 41.5249 111.666 55.332 111.666H88.6654C102.472 111.666 113.665 100.473 113.665 86.6663V53.333C113.665 39.5259 102.472 28.333 88.6654 28.333ZM38.6647 53.3328C38.6647 44.1281 46.1266 36.6662 55.3314 36.6662H88.6647C97.8695 36.6662 105.331 44.1281 105.331 53.3328V86.6662C105.331 95.8709 97.8695 103.333 88.6647 103.333H55.3314C46.1266 103.333 38.6647 95.8709 38.6647 86.6662V53.3328ZM71.998 90.8328C60.4921 90.8328 51.1647 81.5054 51.1647 69.9995C51.1647 58.4936 60.4921 49.1662 71.998 49.1662C83.504 49.1662 92.8314 58.4936 92.8314 69.9995C92.8314 81.5054 83.504 90.8328 71.998 90.8328ZM71.9993 82.4998C78.9029 82.4998 84.4993 76.9034 84.4993 69.9998C84.4993 63.0963 78.9029 57.4998 71.9993 57.4998C65.0958 57.4998 59.4993 63.0963 59.4993 69.9998C59.4993 76.9034 65.0958 82.4998 71.9993 82.4998ZM96.998 49.1665C96.998 51.4677 95.1326 53.3332 92.8314 53.3332C90.5302 53.3332 88.6647 51.4677 88.6647 49.1665C88.6647 46.8653 90.5302 44.9998 92.8314 44.9998C95.1326 44.9998 96.998 46.8653 96.998 49.1665Z" fill="#DDDDDD"/>
</g>
<defs>
<filter id="filter0_d" x="-8" y="-8" width="160" height="160" filterUnits="userSpaceOnUse" color-interpolation-filters="sRGB">
<feFlood flood-opacity="0" result="BackgroundImageFix"/>
<feColorMatrix in="SourceAlpha" type="matrix" values="0 0 0 0 0 0 0 0 0 0 0 0 0 0 0 0 0 0 127 0"/>
<feOffset dy="2"/>
<feGaussianBlur stdDeviation="15"/>
<feColorMatrix type="matrix" values="0 0 0 0 1 0 0 0 0 1 0 0 0 0 1 0 0 0 0.7 0"/>
<feBlend mode="normal" in2="BackgroundImageFix" result="effect1_dropShadow"/>
<feBlend mode="normal" in="SourceGraphic" in2="effect1_dropShadow" result="shape"/>
</filter>
</defs>
</svg>
