<svg width="146" height="140" viewBox="0 0 146 140" fill="none" xmlns="http://www.w3.org/2000/svg">
<g id="24 / symbols / twitter" filter="url(#filter0_d)">
<path id="icon" fill-rule="evenodd" clip-rule="evenodd" d="M109.997 38.7841L115.892 39.4726L113.242 44.783C111.95 47.3727 110.656 49.9624 109.361 52.5521C109.208 53.1006 108.938 53.5814 108.539 54.2075C108.372 54.4691 107.802 55.3012 107.776 55.3411C107.625 55.5667 107.514 55.7446 107.434 55.8871V65.8393C107.434 91.306 82.7884 107.489 59.5134 107.489C54.7508 107.489 51.1323 107.261 46.9889 106.357C40.1702 104.869 35.0957 101.911 32.7736 96.7413L30.3829 91.4192L36.1928 90.8848C41.4487 90.4015 46.0057 89.4002 49.5053 88.0594C39.8977 86.5143 34.5137 82.2946 34.5137 74.37V70.2034H38.6804C39.5958 70.2034 40.4213 70.1291 41.1593 69.9928C33.9487 65.6815 30.3371 58.7655 30.3371 49.1727C30.3363 48.7638 30.3363 48.7638 30.3339 48.3266C30.3068 43.4914 30.5665 40.9079 31.8901 37.6105C32.7385 35.4972 33.9647 33.5409 35.6149 31.7483L38.7592 28.333L41.8161 31.8266C51.8901 43.3397 61.8485 50.3245 72.0161 51.1693C72.0595 40.5457 80.0884 32.506 90.7668 32.506C95.7449 32.506 100.26 34.3956 103.809 37.8027C105.751 38.2018 107.814 38.5292 109.997 38.7841ZM100.784 45.6744L99.5067 45.3852L98.6245 44.4172C96.4916 42.0767 93.8144 40.839 90.7661 40.839C84.6703 40.839 80.3485 45.1823 80.3485 51.2557C80.3485 52.2483 80.3229 52.8719 80.1992 53.6917C79.7058 56.9625 77.8712 59.589 74.0984 59.589C61.6066 59.589 50.337 52.8969 39.3476 41.4672C38.781 43.1894 38.6478 44.9597 38.6664 48.2797C38.6689 48.7237 38.6689 48.7237 38.6698 49.1724C38.6698 57.7057 42.1269 62.3734 50.3124 64.9751L53.217 65.8983V68.9461C53.217 72.6418 49.7156 76.1208 44.5925 77.6791C46.941 79.4609 51.7438 80.4224 59.5142 80.4224H63.6809V84.589C63.6809 90.5588 56.8214 95.2329 46.4594 97.6738C49.8388 98.7091 54.3382 99.1553 59.5128 99.1553C78.7395 99.1553 99.1001 85.7861 99.1001 65.839V55.4224C99.1001 54.1983 99.455 53.1358 100.044 52.031C100.275 51.5991 100.529 51.1873 100.842 50.7176C100.901 50.6292 101.12 50.3088 101.293 50.0527L101.624 49.3922C102.159 48.3221 102.694 47.2519 103.228 46.1817C102.397 46.0243 101.583 45.8553 100.784 45.6744Z" fill="#DDDDDD"/>
</g>
<defs>
<filter id="filter0_d" x="-8" y="-8" width="160" height="160" filterUnits="userSpaceOnUse" color-interpolation-filters="sRGB">
<feFlood flood-opacity="0" result="BackgroundImageFix"/>
<feColorMatrix in="SourceAlpha" type="matrix" values="0 0 0 0 0 0 0 0 0 0 0 0 0 0 0 0 0 0 127 0"/>
<feOffset dy="2"/>
<feGaussianBlur stdDeviation="15"/>
<feColorMatrix type="matrix" values="0 0 0 0 1 0 0 0 0 1 0 0 0 0 1 0 0 0 0.7 0"/>
<feBlend mode="normal" in2="BackgroundImageFix" result="effect1_dropShadow"/>
<feBlend mode="normal" in="SourceGraphic" in2="effect1_dropShadow" result="shape"/>
</filter>
</defs>
</svg>
