<svg width="152" height="128" viewBox="0 0 152 128" fill="none" xmlns="http://www.w3.org/2000/svg">
<g id="24 / symbols / youtube" filter="url(#filter0_d)">
<path id="icon" fill-rule="evenodd" clip-rule="evenodd" d="M117.771 87.5344C120.618 82.6551 121.835 74.7873 121.835 61.9887C121.835 49.2411 120.63 41.419 117.752 36.4088C114.868 31.206 111.448 29.5546 104.661 29.1582C100.027 28.8442 88.5107 28.667 76.0124 28.667C63.4872 28.667 51.9657 28.8441 47.2972 29.1607C40.5476 29.5556 37.1268 31.2106 34.2177 36.4278C31.3821 41.4208 30.168 49.281 30.168 62.0353C30.168 74.7172 31.3879 82.617 34.2426 87.5935C37.1139 92.7436 40.4802 94.3787 47.2872 94.8567C52.1795 95.1431 64.353 95.3336 76.0124 95.3336C87.6456 95.3336 99.8133 95.143 104.661 94.8599C111.53 94.3788 114.896 92.741 117.771 87.5344ZM104.136 37.4748C108.381 37.7229 109.169 38.1045 110.515 40.5403C112.474 43.9335 113.501 50.574 113.501 62.0352C113.501 73.4096 112.468 80.0867 110.524 83.421C109.173 85.8643 108.391 86.2448 104.126 86.5437C99.5378 86.8113 87.4881 87.0002 76.0118 87.0002C64.5095 87.0002 52.4537 86.8114 47.8216 86.5406C43.609 86.2444 42.8159 85.8592 41.4954 83.491C39.5376 80.0773 38.5007 73.3628 38.5007 61.9885C38.5007 50.6209 39.5321 43.9434 41.4794 40.5144C42.8204 38.1096 43.6192 37.7232 47.8219 37.4772C52.2718 37.1756 63.685 37.0002 76.0118 37.0002C88.312 37.0002 99.7199 37.1757 104.136 37.4748ZM67.668 49.5002L88.5013 62.0002L67.668 74.5002V49.5002Z" fill="#DDDDDD"/>
</g>
<defs>
<filter id="filter0_d" x="-4" y="-16" width="160" height="160" filterUnits="userSpaceOnUse" color-interpolation-filters="sRGB">
<feFlood flood-opacity="0" result="BackgroundImageFix"/>
<feColorMatrix in="SourceAlpha" type="matrix" values="0 0 0 0 0 0 0 0 0 0 0 0 0 0 0 0 0 0 127 0"/>
<feOffset dy="2"/>
<feGaussianBlur stdDeviation="15"/>
<feColorMatrix type="matrix" values="0 0 0 0 1 0 0 0 0 1 0 0 0 0 1 0 0 0 0.7 0"/>
<feBlend mode="normal" in2="BackgroundImageFix" result="effect1_dropShadow"/>
<feBlend mode="normal" in="SourceGraphic" in2="effect1_dropShadow" result="shape"/>
</filter>
</defs>
</svg>
